<?xml version="1.0" standalone="no"?>
<!DOCTYPE svg PUBLIC "-//W3C//DTD SVG 20010904//EN"
 "http://www.w3.org/TR/2001/REC-SVG-20010904/DTD/svg10.dtd">
<svg version="1.0" xmlns="http://www.w3.org/2000/svg"
 width="260.000000pt" height="260.000000pt" viewBox="0 0 260.000000 260.000000"
 preserveAspectRatio="xMidYMid meet">
<metadata>
Created by potrace 1.11, written by Peter Selinger 2001-2013
</metadata>
<g transform="translate(0.000000,260.000000) scale(0.100000,-0.100000)"
fill="#000000" stroke="none">
<path d="M1185 2183 c-170 -24 -344 -124 -442 -256 -123 -165 -168 -366 -127
-563 8 -42 13 -78 10 -81 -11 -12 -377 -7 -468 7 -54 7 -101 11 -105 7 -14
-15 20 -88 62 -132 44 -45 132 -95 168 -95 10 0 30 -12 45 -26 43 -41 103 -72
170 -89 35 -9 79 -27 99 -41 20 -13 54 -29 77 -35 22 -6 50 -19 61 -29 28 -24
60 -40 84 -40 20 0 90 -40 91 -51 0 -4 -28 -12 -62 -18 -136 -26 -308 -96
-308 -126 0 -18 52 -52 91 -60 15 -4 34 -16 42 -28 8 -13 32 -31 53 -41 22
-11 59 -29 84 -42 25 -12 74 -25 110 -28 56 -6 71 -4 108 16 43 23 59 44 83
106 16 45 50 67 78 52 17 -9 19 -15 11 -30 -17 -32 -11 -70 15 -95 19 -20 35
-25 72 -25 44 0 80 -7 140 -25 23 -8 38 5 79 68 26 40 25 77 -2 77 -8 0 -14 4
-14 9 0 9 84 31 120 31 11 0 54 11 95 25 65 21 101 25 241 29 91 3 169 8 174
11 19 12 11 80 -11 101 -11 10 -37 36 -57 56 -22 21 -54 41 -78 47 -65 17 -72
35 -21 50 23 7 56 23 72 36 17 12 53 25 80 29 28 4 73 20 100 35 28 16 67 34
88 41 21 6 53 24 70 40 18 15 49 30 70 34 67 12 134 106 114 160 -7 18 -508
33 -577 17 -25 -6 -48 -11 -51 -11 -4 0 0 28 8 63 10 42 14 97 11 172 -6 135
-41 246 -112 353 -138 209 -399 328 -641 295z m190 -63 c17 -7 16 -9 -10 -9
-16 0 -39 4 -50 9 -17 7 -16 9 10 9 17 0 39 -4 50 -9z m-77 -36 c27 -17 28
-35 4 -57 -56 -51 -172 -63 -219 -23 -23 20 -26 28 -17 43 33 54 171 77 232
37z m245 -18 c72 -37 155 -103 197 -157 34 -44 34 -44 -16 7 -28 28 -70 64
-94 79 -48 31 -189 85 -220 85 -10 0 -22 5 -26 11 -13 22 101 4 159 -25z
m-529 -30 c-3 -8 -24 -27 -47 -42 -23 -15 -68 -52 -99 -82 -53 -50 -58 -53
-58 -31 0 32 67 98 140 138 62 35 72 37 64 17z m569 -32 c27 -13 57 -30 66
-36 29 -21 147 -133 131 -124 -8 4 -5 -1 6 -11 28 -24 47 -62 75 -153 32 -104
32 -228 0 -330 -24 -78 -83 -204 -101 -215 -15 -9 -12 20 5 62 17 41 19 79 5
88 -5 3 -27 -6 -47 -20 -22 -14 -52 -25 -72 -25 -33 0 -32 1 40 49 41 26 88
63 104 82 26 29 24 28 -17 -8 -26 -22 -77 -55 -114 -73 -56 -27 -70 -31 -91
-21 -13 6 -34 11 -47 11 -13 0 -29 6 -35 14 -9 10 -21 12 -48 5 -45 -10 -53
-5 -53 28 0 16 -7 27 -20 30 -15 4 -18 11 -14 29 8 32 -21 33 -46 2 l-19 -23
-22 22 c-13 12 -21 25 -18 27 2 3 44 10 92 17 68 10 90 10 99 1 9 -9 5 -12
-20 -12 -41 0 -41 -11 3 -34 19 -10 39 -31 44 -45 9 -26 9 -26 10 7 1 29 3 31
20 23 20 -11 31 -5 31 15 0 12 -30 27 -55 29 -5 0 -11 9 -13 21 -2 17 7 25 47
42 28 11 71 34 95 51 25 17 49 31 54 31 5 0 22 -29 38 -65 15 -35 30 -63 32
-61 2 2 -8 36 -21 74 l-25 71 30 28 c16 15 39 42 51 58 11 17 -3 5 -32 -25
l-52 -55 -37 70 c-21 39 -46 82 -56 98 l-18 27 26 0 c23 0 26 4 26 38 0 40
-17 56 -65 64 -15 3 -19 10 -17 30 3 24 0 26 -45 30 -26 3 -52 1 -57 -3 -5 -5
-22 1 -38 13 -29 20 -29 20 -9 39 18 17 23 18 63 3 24 -8 67 -29 96 -46 42
-26 51 -36 46 -53 -6 -17 -5 -18 9 -6 15 11 22 9 54 -19 43 -37 122 -130 124
-145 1 -5 1 -14 -1 -20 -1 -5 4 -5 10 2 10 9 -1 29 -45 87 -57 76 -130 140
-212 187 -26 14 -43 31 -43 42 0 22 19 18 93 -19z m-215 -80 c41 -35 46 -54
15 -54 -9 0 -21 -7 -28 -16 -11 -15 -14 -15 -37 0 -23 15 -26 23 -23 59 2 23
4 43 4 45 3 11 35 -4 69 -34z m-470 -61 c-14 -55 -30 -68 -52 -44 -16 18 -16
20 21 50 21 17 38 31 39 31 2 0 -2 -17 -8 -37z m-127 -61 c-16 -26 -41 -71
-54 -99 -13 -29 -27 -50 -30 -47 -3 3 -8 -34 -12 -83 -10 -124 -28 -144 -21
-24 3 52 10 99 15 104 6 6 11 19 11 29 0 23 43 108 84 168 28 40 31 43 34 22
2 -13 -9 -43 -27 -70z m58 -13 c17 -21 16 -24 -15 -83 -18 -33 -38 -80 -45
-104 l-12 -42 -24 22 c-29 27 -29 57 -2 111 25 48 70 117 76 117 3 0 13 -10
22 -21z m78 -101 c29 -42 30 -45 21 -108 -16 -107 -14 -105 -83 -71 -50 24
-57 30 -41 37 18 7 18 8 2 14 -15 5 -12 15 24 88 23 45 42 82 44 82 1 0 16
-19 33 -42z m720 -54 c13 -22 23 -45 23 -51 0 -20 -184 -102 -198 -88 -11 11
10 36 49 55 l42 22 -7 52 -6 53 38 -2 c32 -2 40 -8 59 -41z m-627 -57 c0 -20
12 -53 31 -81 l30 -48 -38 6 c-73 13 -75 15 -68 49 21 101 45 141 45 74z
m-285 -13 c14 -22 15 -28 4 -35 -11 -7 -10 -9 4 -9 27 0 21 -36 -10 -60 -25
-19 -26 -20 -5 -15 17 5 22 2 22 -12 0 -11 -5 -24 -12 -31 -9 -9 -9 -12 0 -12
16 0 16 -32 0 -48 -8 -8 -8 -12 -1 -12 6 0 13 -11 16 -25 5 -32 -10 -28 -36 7
-15 20 -19 43 -20 99 0 68 11 179 18 179 1 0 10 -12 20 -26z m377 -51 c9 -10
21 -28 27 -40 18 -36 -21 -30 -42 6 -28 47 -17 71 15 34z m304 -7 c13 -10 16
-18 9 -25 -12 -12 -145 -31 -145 -20 0 26 15 39 45 39 19 0 37 5 40 10 9 14
28 12 51 -4z m-611 -5 c3 -5 1 -12 -5 -16 -5 -3 -10 1 -10 9 0 18 6 21 15 7z
m80 -43 c67 -33 62 -55 -23 -107 -73 -44 -92 -49 -92 -27 0 8 15 19 33 26 36
12 99 60 79 60 -7 0 -35 -11 -62 -25 -46 -24 -50 -24 -50 -7 0 13 14 25 43 37
28 12 37 19 25 22 -9 2 -26 -1 -37 -7 -17 -9 -21 -8 -21 6 0 18 27 43 47 44 7
0 33 -10 58 -22z m253 -61 c30 -3 38 -18 34 -67 -3 -33 -10 -43 -34 -56 -41
-21 -45 -12 -8 20 26 22 28 26 12 26 -10 0 -34 -10 -53 -23 -36 -24 -69 -40
-69 -32 0 3 24 23 53 46 56 45 41 46 -45 3 -52 -27 -58 -28 -58 -15 0 5 21 23
48 40 50 33 44 40 -13 17 -38 -16 -49 -3 -17 20 16 13 16 13 0 14 -11 0 -18 8
-18 18 0 17 4 17 73 4 39 -7 82 -14 95 -15z m136 -51 c44 11 92 -16 87 -48 -2
-14 44 -32 84 -32 34 -1 40 -4 37 -21 -4 -20 -90 -115 -104 -115 -17 0 -6 22
28 60 41 46 28 53 -28 15 -53 -36 -58 -31 -13 16 36 37 37 41 15 34 -14 -4
-39 -16 -56 -26 -46 -28 -52 -23 -18 12 l29 31 -25 -7 c-14 -4 -29 -11 -35
-16 -5 -5 -15 -9 -23 -9 -7 0 -1 11 15 26 l28 25 -40 -6 c-37 -5 -39 -4 -21
10 17 13 18 15 3 15 -12 0 -17 8 -17 26 0 22 3 24 14 15 8 -7 25 -9 40 -5z
m-344 -4 c0 -15 -79 -61 -115 -68 -27 -5 -35 -3 -35 9 0 9 14 17 38 21 20 3
48 15 62 26 26 20 50 26 50 12z m4 -61 c8 -12 -18 -21 -57 -20 l-32 1 35 13
c43 17 47 17 54 6z m1563 -45 c-7 -20 -54 -46 -110 -60 -41 -11 -65 -24 -83
-46 -14 -16 -32 -30 -41 -30 -8 0 -34 -11 -58 -25 -24 -14 -71 -30 -105 -36
-34 -5 -78 -20 -98 -34 -52 -33 -146 -59 -169 -46 -15 9 -14 10 12 11 23 0 27
3 15 10 -11 7 -3 10 30 10 l45 1 -30 14 -30 13 52 1 c57 1 86 21 31 21 -18 0
-40 5 -48 10 -10 7 16 10 85 11 109 1 191 16 99 18 -28 1 -73 4 -100 8 -70 9
-30 21 76 23 96 1 166 12 183 29 8 8 -11 9 -70 4 -92 -7 -215 5 -173 17 14 4
68 10 120 14 131 10 261 26 276 34 20 11 -376 3 -417 -8 -37 -10 -83 -53 -168
-156 -52 -65 -130 -134 -150 -134 -6 0 -11 -4 -11 -9 0 -4 20 -11 44 -14 24
-4 63 -13 87 -21 27 -9 47 -12 53 -6 5 5 19 1 35 -11 23 -18 26 -19 29 -5 3
14 6 15 25 1 12 -8 30 -15 40 -15 10 0 30 -12 45 -27 15 -16 40 -35 57 -43 16
-8 31 -24 33 -35 2 -17 -3 -20 -45 -21 -26 -1 -60 -5 -75 -9 -33 -9 -81 1 -73
15 4 6 -7 10 -24 10 -29 0 -56 19 -29 21 7 0 -2 5 -20 10 -37 11 -34 28 6 30
20 1 22 2 7 6 -11 2 -30 6 -43 9 -13 2 -20 9 -17 14 7 11 -6 13 -29 4 -20 -8
-21 -24 -1 -24 11 0 14 -7 9 -24 -4 -17 0 -25 13 -31 17 -7 17 -8 -2 -15 -28
-12 -47 -12 -40 0 4 6 -9 10 -32 10 l-38 1 25 15 c24 15 24 15 -17 9 -26 -3
-43 -1 -43 5 0 5 9 10 20 10 11 0 20 4 20 9 0 5 -19 7 -42 3 -39 -5 -42 -4
-29 11 12 15 9 17 -32 17 -60 0 -113 28 -179 96 -63 64 -85 93 -123 157 -57
98 -65 100 -525 102 -215 1 -409 7 -439 12 -48 9 -53 9 -36 -3 41 -30 160 -49
365 -58 234 -11 331 -18 325 -25 -4 -3 -43 -8 -88 -11 -73 -5 -79 -7 -55 -17
14 -7 68 -18 120 -25 l93 -14 -65 -13 c-61 -13 -63 -14 -35 -22 17 -5 59 -12
95 -15 101 -11 115 -20 43 -29 -109 -12 -65 -34 71 -36 84 -1 64 -17 -24 -19
-84 -2 -32 -18 63 -19 44 -1 77 -5 77 -11 0 -5 -17 -11 -37 -11 -21 -1 -51 -4
-68 -8 -27 -6 -24 -8 25 -14 30 -4 75 -7 100 -8 40 -1 36 -3 -30 -13 l-75 -12
60 -8 c94 -11 127 -17 123 -22 -3 -2 -68 -5 -146 -6 -78 -2 -142 -6 -142 -10
0 -14 89 -20 124 -8 23 7 41 8 52 2 14 -8 6 -12 -35 -21 -29 -6 -71 -11 -93
-11 -54 0 -45 -7 23 -19 l54 -9 -45 -2 c-25 -1 -65 -5 -90 -9 l-45 -8 47 -2
c56 -1 71 -16 25 -25 -17 -3 -65 -28 -105 -56 -79 -54 -140 -75 -181 -64 -24
6 -21 8 31 24 68 21 199 93 177 98 -8 1 -60 -15 -116 -38 -94 -38 -163 -51
-163 -31 0 5 14 11 31 15 31 6 199 81 199 89 0 8 -84 -12 -156 -36 -85 -30
-154 -43 -154 -29 0 21 173 80 311 107 92 17 100 20 69 30 -11 4 -28 17 -36
31 -9 13 -22 24 -29 24 -7 0 -23 10 -37 23 -13 12 -43 28 -66 35 -25 8 -51 25
-64 42 -13 18 -31 30 -45 30 -34 0 -102 30 -113 50 -6 12 -27 19 -70 23 -81 9
-141 36 -176 81 -19 24 -37 36 -54 36 -38 0 -121 43 -155 80 l-30 33 35 -9
c19 -5 235 -9 480 -9 504 -1 537 -4 601 -62 22 -20 62 -74 90 -120 82 -135
143 -184 226 -182 l38 1 -35 15 -35 15 49 25 c51 26 129 100 251 237 94 105
99 106 407 103 143 -1 237 -6 235 -11z m-1013 -107 c-22 -25 -83 -53 -93 -43
-3 4 -1 8 4 11 6 2 28 14 50 27 51 30 63 32 39 5z m19 -48 c-43 -39 -79 -56
-88 -41 -3 4 20 20 51 36 30 15 57 32 60 36 3 4 8 8 12 8 4 -1 -12 -18 -35
-39z m40 -39 c-34 -29 -100 -58 -110 -48 -4 3 -4 7 -2 9 28 16 126 65 134 65
6 1 -4 -11 -22 -26z m-3 -62 c-26 -20 -69 -34 -77 -26 -5 5 75 44 92 45 6 0
-1 -8 -15 -19z m6 -39 c-18 -20 -56 -35 -56 -22 0 6 55 38 69 40 2 1 -4 -8
-13 -18z m-108 -327 c27 -19 20 -32 -36 -64 l-37 -22 30 31 c25 27 28 34 17
51 -15 24 -4 26 26 4z m-400 -56 c-26 -38 -64 -60 -114 -64 l-49 -5 45 19 c25
10 64 31 85 45 48 33 52 33 33 5z m243 -62 c2 -2 13 -8 24 -14 14 -8 16 -11 5
-12 -26 0 -60 30 -60 54 0 36 14 41 21 6 4 -17 8 -32 10 -34z m-210 26 c-16
-30 -46 -52 -82 -58 l-34 -5 40 19 c22 10 49 29 59 41 23 26 30 27 17 3z m402
-44 c-13 -25 -18 -29 -21 -15 -4 19 -28 23 -34 6 -2 -7 -11 -10 -18 -7 -18 6
46 48 73 48 17 0 17 -2 0 -32z"/>
<path d="M419 1080 c13 -11 46 -27 75 -35 47 -13 274 -36 335 -34 25 1 25 1
-4 9 -16 5 -51 14 -78 21 -26 6 -51 17 -55 24 -4 8 -46 15 -112 19 -58 4 -123
9 -145 12 l-40 5 24 -21z"/>
<path d="M656 989 c21 -35 209 -63 264 -41 24 10 24 11 3 11 -13 1 -40 7 -60
15 -43 16 -216 29 -207 15z"/>
<path d="M813 903 c14 -14 39 -19 115 -21 53 -2 94 0 89 4 -18 18 -87 34 -152
34 -66 0 -68 -1 -52 -17z"/>
<path d="M920 848 c0 -20 115 -34 155 -19 19 8 19 9 -5 16 -31 11 -150 13
-150 3z"/>
<path d="M1030 800 l-45 -6 28 -12 c31 -13 68 -14 107 -3 l25 7 -22 12 c-12 7
-28 11 -35 10 -7 0 -33 -4 -58 -8z"/>
<path d="M1913 770 c27 -21 62 -26 72 -10 7 12 -36 30 -72 30 l-26 0 26 -20z"/>
</g>
</svg>
